<mxfile host="Electron" modified="2024-02-22T13:33:01.803Z" agent="Mozilla/5.0 (X11; Linux x86_64) AppleWebKit/537.36 (KHTML, like Gecko) draw.io/23.1.5 Chrome/120.0.6099.109 Electron/28.1.0 Safari/537.36" etag="swKgK4cJdeZYFVRo9ozQ" version="23.1.5" type="device">
  <diagram name="Page-1" id="b520641d-4fe3-3701-9064-5fc419738815">
    <mxGraphModel dx="925" dy="661" grid="1" gridSize="10" guides="1" tooltips="1" connect="1" arrows="1" fold="1" page="1" pageScale="1" pageWidth="1100" pageHeight="850" background="none" math="0" shadow="0">
      <root>
        <mxCell id="0" />
        <mxCell id="1" parent="0" />
        <mxCell id="lOx2ni-uWRj8EmkOzaHe-16" value="Заполненная&lt;br&gt;форма договора" style="edgeStyle=orthogonalEdgeStyle;rounded=0;orthogonalLoop=1;jettySize=auto;html=1;exitX=0.5;exitY=1;exitDx=0;exitDy=0;entryX=0;entryY=0.5;entryDx=0;entryDy=0;" edge="1" parent="1" source="lOx2ni-uWRj8EmkOzaHe-2" target="lOx2ni-uWRj8EmkOzaHe-7">
          <mxGeometry relative="1" as="geometry" />
        </mxCell>
        <mxCell id="lOx2ni-uWRj8EmkOzaHe-22" value="Данные&lt;br&gt;счёта" style="edgeStyle=orthogonalEdgeStyle;rounded=0;orthogonalLoop=1;jettySize=auto;html=1;exitX=0.5;exitY=1;exitDx=0;exitDy=0;entryX=0;entryY=0.5;entryDx=0;entryDy=0;" edge="1" parent="1" source="lOx2ni-uWRj8EmkOzaHe-2" target="lOx2ni-uWRj8EmkOzaHe-11">
          <mxGeometry relative="1" as="geometry" />
        </mxCell>
        <mxCell id="lOx2ni-uWRj8EmkOzaHe-23" value="Данные&lt;br&gt;договора" style="edgeStyle=orthogonalEdgeStyle;rounded=0;orthogonalLoop=1;jettySize=auto;html=1;exitX=0.5;exitY=1;exitDx=0;exitDy=0;entryX=0;entryY=0.5;entryDx=0;entryDy=0;" edge="1" parent="1" source="lOx2ni-uWRj8EmkOzaHe-2" target="lOx2ni-uWRj8EmkOzaHe-9">
          <mxGeometry x="0.2542" relative="1" as="geometry">
            <mxPoint as="offset" />
          </mxGeometry>
        </mxCell>
        <mxCell id="lOx2ni-uWRj8EmkOzaHe-2" value="Кассир" style="rounded=0;whiteSpace=wrap;html=1;" vertex="1" parent="1">
          <mxGeometry x="30" y="190" width="120" height="60" as="geometry" />
        </mxCell>
        <mxCell id="lOx2ni-uWRj8EmkOzaHe-14" value="Валидированные&lt;br&gt;данные клиента" style="edgeStyle=orthogonalEdgeStyle;rounded=0;orthogonalLoop=1;jettySize=auto;html=1;exitX=1;exitY=0.5;exitDx=0;exitDy=0;entryX=0;entryY=0.5;entryDx=0;entryDy=0;" edge="1" parent="1" source="lOx2ni-uWRj8EmkOzaHe-4" target="lOx2ni-uWRj8EmkOzaHe-6">
          <mxGeometry relative="1" as="geometry" />
        </mxCell>
        <mxCell id="lOx2ni-uWRj8EmkOzaHe-4" value="Внесение клиента в базу данных" style="ellipse;whiteSpace=wrap;html=1;aspect=fixed;" vertex="1" parent="1">
          <mxGeometry x="410" y="190" width="80" height="80" as="geometry" />
        </mxCell>
        <mxCell id="lOx2ni-uWRj8EmkOzaHe-6" value="Клиенты" style="shape=process;whiteSpace=wrap;html=1;backgroundOutline=1;" vertex="1" parent="1">
          <mxGeometry x="640" y="190" width="120" height="60" as="geometry" />
        </mxCell>
        <mxCell id="lOx2ni-uWRj8EmkOzaHe-17" value="Валидированные&lt;br&gt;данные договора" style="edgeStyle=orthogonalEdgeStyle;rounded=0;orthogonalLoop=1;jettySize=auto;html=1;exitX=1;exitY=0.5;exitDx=0;exitDy=0;entryX=0;entryY=0.75;entryDx=0;entryDy=0;" edge="1" parent="1" source="lOx2ni-uWRj8EmkOzaHe-7" target="lOx2ni-uWRj8EmkOzaHe-8">
          <mxGeometry relative="1" as="geometry" />
        </mxCell>
        <mxCell id="lOx2ni-uWRj8EmkOzaHe-7" value="Составление договора" style="ellipse;whiteSpace=wrap;html=1;aspect=fixed;" vertex="1" parent="1">
          <mxGeometry x="410" y="330" width="80" height="80" as="geometry" />
        </mxCell>
        <mxCell id="lOx2ni-uWRj8EmkOzaHe-18" value="Данные&lt;br&gt;договора" style="edgeStyle=orthogonalEdgeStyle;rounded=0;orthogonalLoop=1;jettySize=auto;html=1;exitX=0.5;exitY=1;exitDx=0;exitDy=0;entryX=0.5;entryY=0;entryDx=0;entryDy=0;" edge="1" parent="1" source="lOx2ni-uWRj8EmkOzaHe-8" target="lOx2ni-uWRj8EmkOzaHe-9">
          <mxGeometry relative="1" as="geometry" />
        </mxCell>
        <mxCell id="lOx2ni-uWRj8EmkOzaHe-8" value="Договоры" style="shape=process;whiteSpace=wrap;html=1;backgroundOutline=1;" vertex="1" parent="1">
          <mxGeometry x="640" y="330" width="120" height="60" as="geometry" />
        </mxCell>
        <mxCell id="lOx2ni-uWRj8EmkOzaHe-19" value="Данные &lt;br&gt;счёта" style="edgeStyle=orthogonalEdgeStyle;rounded=0;orthogonalLoop=1;jettySize=auto;html=1;exitX=1;exitY=0.5;exitDx=0;exitDy=0;entryX=0;entryY=0.5;entryDx=0;entryDy=0;" edge="1" parent="1" source="lOx2ni-uWRj8EmkOzaHe-9" target="lOx2ni-uWRj8EmkOzaHe-10">
          <mxGeometry relative="1" as="geometry" />
        </mxCell>
        <mxCell id="lOx2ni-uWRj8EmkOzaHe-9" value="Открытие счёта" style="ellipse;whiteSpace=wrap;html=1;aspect=fixed;" vertex="1" parent="1">
          <mxGeometry x="410" y="480" width="80" height="80" as="geometry" />
        </mxCell>
        <mxCell id="lOx2ni-uWRj8EmkOzaHe-20" value="Данные&lt;br&gt;счёта" style="edgeStyle=orthogonalEdgeStyle;rounded=0;orthogonalLoop=1;jettySize=auto;html=1;exitX=0.5;exitY=1;exitDx=0;exitDy=0;entryX=0.5;entryY=0;entryDx=0;entryDy=0;" edge="1" parent="1" source="lOx2ni-uWRj8EmkOzaHe-10" target="lOx2ni-uWRj8EmkOzaHe-11">
          <mxGeometry relative="1" as="geometry" />
        </mxCell>
        <mxCell id="lOx2ni-uWRj8EmkOzaHe-10" value="Счета" style="shape=process;whiteSpace=wrap;html=1;backgroundOutline=1;" vertex="1" parent="1">
          <mxGeometry x="640" y="500" width="120" height="60" as="geometry" />
        </mxCell>
        <mxCell id="lOx2ni-uWRj8EmkOzaHe-21" value="Данные&lt;br&gt;кредитной&lt;br&gt;карты" style="edgeStyle=orthogonalEdgeStyle;rounded=0;orthogonalLoop=1;jettySize=auto;html=1;exitX=1;exitY=0.5;exitDx=0;exitDy=0;entryX=0;entryY=0.5;entryDx=0;entryDy=0;" edge="1" parent="1" source="lOx2ni-uWRj8EmkOzaHe-11" target="lOx2ni-uWRj8EmkOzaHe-12">
          <mxGeometry relative="1" as="geometry" />
        </mxCell>
        <mxCell id="lOx2ni-uWRj8EmkOzaHe-11" value="Создание кредитной карточки" style="ellipse;whiteSpace=wrap;html=1;aspect=fixed;" vertex="1" parent="1">
          <mxGeometry x="410" y="630" width="80" height="80" as="geometry" />
        </mxCell>
        <mxCell id="lOx2ni-uWRj8EmkOzaHe-12" value="Кредитные карты" style="shape=process;whiteSpace=wrap;html=1;backgroundOutline=1;" vertex="1" parent="1">
          <mxGeometry x="640" y="640" width="120" height="60" as="geometry" />
        </mxCell>
        <mxCell id="lOx2ni-uWRj8EmkOzaHe-13" value="Заполненная &lt;br&gt;форма клиента" style="edgeStyle=orthogonalEdgeStyle;rounded=0;orthogonalLoop=1;jettySize=auto;html=1;exitX=1;exitY=0.5;exitDx=0;exitDy=0;entryX=-0.003;entryY=0.393;entryDx=0;entryDy=0;entryPerimeter=0;" edge="1" parent="1" source="lOx2ni-uWRj8EmkOzaHe-2" target="lOx2ni-uWRj8EmkOzaHe-4">
          <mxGeometry relative="1" as="geometry" />
        </mxCell>
        <mxCell id="lOx2ni-uWRj8EmkOzaHe-15" value="Данные клиента" style="edgeStyle=orthogonalEdgeStyle;rounded=0;orthogonalLoop=1;jettySize=auto;html=1;exitX=0.5;exitY=1;exitDx=0;exitDy=0;entryX=0.663;entryY=-0.027;entryDx=0;entryDy=0;entryPerimeter=0;" edge="1" parent="1" source="lOx2ni-uWRj8EmkOzaHe-6" target="lOx2ni-uWRj8EmkOzaHe-7">
          <mxGeometry relative="1" as="geometry" />
        </mxCell>
      </root>
    </mxGraphModel>
  </diagram>
</mxfile>
